# xmcd
#
# Track frame offsets:
#	150
#	12362
#	25736
#	39064
#	50742
#	65966
#	78743
#	94877
#	109190
#	125238
#	134860
#	146768
#	161064
#	177247
#
# Disc length: 2550 seconds
# Revision: 0
# Processed by: cddbd v1.5.2PL0 Copyright (c) Steve Scherf et al.
# Submitted via: dBpowerAMP V12.0
#
DISCID=d409f40e
DTITLE=Tom Ewing - Adventures of a Blue Grass Boy
DYEAR=2016
DGENRE=Bluegrass
TTITLE0=Plese Come Back, Little Pal
TTITLE1=Old Friend
TTITLE2=The Old Hometown
TTITLE3=My Wish Come True
TTITLE4=Take Me Home
TTITLE5=When the Bees Are in the Hive
TTITLE6=Won't You Come Home to Me?
TTITLE7=O-hio
TTITLE8=A Distant Land to Roam
TTITLE9=Black Jack Davy
TTITLE10=She Looked a Lot Like You
TTITLE11=Willie Moore
TTITLE12=It Ain't Over 'Til It's Over
TTITLE13=Lookin' Out a Window
EXTD=
EXTT0=
EXTT1=
EXTT2=
EXTT3=
EXTT4=
EXTT5=
EXTT6=
EXTT7=
EXTT8=
EXTT9=
EXTT10=
EXTT11=
EXTT12=
EXTT13=
PLAYORDER=
